<?xml version="1.0" standalone="no"?>
<!DOCTYPE svg PUBLIC "-//W3C//DTD SVG 20010904//EN"
 "http://www.w3.org/TR/2001/REC-SVG-20010904/DTD/svg10.dtd">
<svg version="1.0" xmlns="http://www.w3.org/2000/svg"
 width="512.000000pt" height="512.000000pt" viewBox="0 0 512.000000 512.000000"
 preserveAspectRatio="xMidYMid meet">
<metadata>
Created by potrace 1.15, written by Peter Selinger 2001-2017
</metadata>
<g transform="translate(0.000000,512.000000) scale(0.100000,-0.100000)"
fill="#000000" stroke="none">
<path d="M2966 4144 c-164 -30 -327 -98 -486 -202 -108 -71 -268 -233 -340
-343 l-55 -84 -137 4 c-264 7 -464 -63 -656 -229 -98 -84 -171 -181 -233 -306
l-50 -101 -117 -6 c-397 -18 -737 -289 -859 -684 -25 -82 -27 -100 -27 -273 0
-173 2 -191 27 -273 98 -317 335 -555 652 -654 l90 -28 1785 0 1785 0 88 28
c319 100 557 337 653 652 26 84 28 103 28 270 1 159 -2 189 -22 259 -81 280
-263 493 -527 617 l-83 39 -1 100 c-4 282 -123 585 -314 798 -202 224 -443
361 -736 416 -104 20 -355 20 -465 0z m497 -348 c314 -94 555 -334 654 -651
27 -88 28 -96 28 -322 l0 -232 110 -37 c60 -20 142 -51 180 -70 164 -77 294
-236 340 -415 24 -91 17 -260 -14 -349 -85 -242 -295 -405 -555 -431 -121 -11
-3186 -11 -3297 0 -257 28 -464 189 -551 431 -20 56 -23 84 -23 200 0 121 3
142 26 207 67 183 215 329 399 394 54 20 86 23 190 24 69 0 163 -2 210 -5 l85
-5 51 146 c69 199 133 298 248 384 183 136 350 155 693 80 19 -4 31 11 94 122
87 154 126 209 210 292 137 135 286 212 514 265 11 3 88 3 170 2 127 -3 163
-7 238 -30z"/>
</g>
</svg>
