<?xml version="1.0" standalone="no"?>
<!DOCTYPE svg PUBLIC "-//W3C//DTD SVG 20010904//EN"
 "http://www.w3.org/TR/2001/REC-SVG-20010904/DTD/svg10.dtd">
<svg version="1.0" xmlns="http://www.w3.org/2000/svg"
 width="920.000000pt" height="645.000000pt" viewBox="0 0 920.000000 645.000000"
 preserveAspectRatio="xMidYMid meet">
<metadata>
Created by potrace 1.15, written by Peter Selinger 2001-2017
</metadata>
<g transform="translate(0.000000,645.000000) scale(0.100000,-0.100000)"
fill="#000000" stroke="none">
<path d="M1362 6029 c-337 -44 -612 -283 -719 -626 l-28 -88 0 -1890 0 -1890
22 -84 c78 -291 285 -512 574 -613 l94 -33 3269 -3 c3249 -2 3269 -2 3353 18
358 85 621 383 663 750 8 66 10 649 8 1910 l-3 1815 -22 80 c-86 320 -317 552
-636 638 l-82 22 -3215 1 c-1768 1 -3243 -2 -3278 -7z m6491 -469 c129 -40
237 -151 271 -282 13 -48 16 -96 14 -203 l-3 -140 -45 58 c-25 31 -48 57 -52
57 -4 0 -713 -577 -1575 -1282 -1662 -1358 -1831 -1497 -1850 -1510 -7 -6
-589 463 -1718 1387 -939 768 -1713 1399 -1719 1401 -7 3 -26 -12 -42 -32 -71
-90 -65 -99 -62 91 3 168 3 171 35 237 52 111 160 201 270 227 22 5 1416 9
3224 10 3161 1 3187 1 3252 -19z m-5012 -2460 c1168 -955 1765 -1438 1773
-1432 23 18 1429 1168 2454 2006 579 473 1057 863 1062 864 7 3 10 -508 10
-1460 0 -1594 2 -1524 -55 -1623 -37 -63 -116 -132 -193 -168 l-67 -32 -3194
-3 c-2855 -2 -3201 -1 -3255 13 -119 31 -211 107 -268 223 l-33 67 -3 1492
c-1 821 0 1493 3 1493 3 0 798 -648 1766 -1440z"/>
</g>
</svg>
